<svg width="21" height="24" viewBox="0 0 21 24" fill="none" xmlns="http://www.w3.org/2000/svg">
<path d="M20.5949 16.8813L18.1573 15.4739L20.2697 14.2283C20.6594 13.9985 20.789 13.4964 20.5592 13.1068C20.3295 12.7173 19.8275 12.5877 19.4378 12.8173L16.5278 14.5332L12.1403 11.9999L16.527 9.46717L19.4379 11.1828C19.5684 11.2598 19.7116 11.2963 19.8529 11.2963C20.1334 11.2963 20.4065 11.1521 20.5592 10.893C20.7889 10.5034 20.6592 10.0013 20.2695 9.77151L18.1567 8.52631L20.5949 7.11861C20.9866 6.89246 21.1208 6.39156 20.8947 5.99986C20.6685 5.60806 20.1676 5.47385 19.7759 5.70011L17.3383 7.10758L17.3161 4.65485C17.3121 4.20255 16.941 3.83706 16.4898 3.84328C16.0375 3.84732 15.6741 4.21729 15.6782 4.66959L15.7087 8.04834L11.3214 10.5814V5.51567L14.2629 3.85322C14.6567 3.63067 14.7955 3.13108 14.5729 2.7372C14.3504 2.34342 13.8507 2.20452 13.4569 2.42718L11.3214 3.63416V0.818997C11.3214 0.366692 10.9547 0 10.5024 0C10.0501 0 9.68339 0.366692 9.68339 0.818997V3.63416L7.54788 2.42729C7.15389 2.20463 6.65452 2.34342 6.43186 2.73731C6.20931 3.13108 6.34811 3.63078 6.74188 3.85333L9.68328 5.51578V10.5814L5.29597 8.04834L5.32643 4.66959C5.33058 4.21729 4.96717 3.84732 4.51486 3.84328C4.51235 3.84328 4.50995 3.84328 4.50733 3.84328C4.05852 3.84328 3.69259 4.20506 3.68855 4.65496L3.66638 7.10758L1.22872 5.70011C0.837019 5.47385 0.336121 5.60816 0.109968 5.99986C-0.116184 6.39156 0.018022 6.89246 0.409721 7.11861L2.84782 8.52631L0.734699 9.77173C0.345075 10.0014 0.215346 10.5035 0.444993 10.8932C0.597763 11.1523 0.870871 11.2965 1.1514 11.2965C1.29271 11.2965 1.43587 11.2599 1.56647 11.183L4.47763 9.46739L8.8645 12.0002L4.47686 14.5334L1.56647 12.8172C1.17707 12.5875 0.674749 12.7171 0.444993 13.1067C0.215237 13.4963 0.344857 13.9984 0.734481 14.2281L2.84728 15.4738L0.409612 16.8812C0.0179129 17.1073 -0.116293 17.6082 0.109859 17.9999C0.261537 18.2627 0.536829 18.4095 0.819875 18.4095C0.958777 18.4095 1.09964 18.3741 1.22861 18.2997L3.66627 16.8922L3.68844 19.345C3.69248 19.7948 4.05841 20.1567 4.50722 20.1567C4.50973 20.1567 4.51224 20.1567 4.51475 20.1566C4.96706 20.1526 5.33047 19.7826 5.32632 19.3303L5.29586 15.9514L9.68328 13.4183V18.4842L6.74188 20.1467C6.34811 20.3692 6.20931 20.8688 6.43186 21.2627C6.58245 21.5291 6.85992 21.6789 7.14559 21.6789C7.28209 21.6789 7.42055 21.6447 7.54788 21.5727L9.68339 20.3658V23.181C9.68339 23.6333 10.0501 24 10.5024 24C10.9547 24 11.3214 23.6333 11.3214 23.181V20.3658L13.4569 21.5727C13.5842 21.6447 13.7226 21.6789 13.8592 21.6789C14.1448 21.6789 14.4223 21.5291 14.5729 21.2627C14.7955 20.8689 14.6567 20.3692 14.2629 20.1467L11.3214 18.4842V13.4184L15.7087 15.9514L15.6775 19.3302C15.6732 19.7825 16.0365 20.1526 16.4888 20.1567C16.4914 20.1568 16.4939 20.1568 16.4966 20.1568C16.9453 20.1568 17.3112 19.795 17.3153 19.3454L17.3381 16.8922L19.7761 18.2998C19.905 18.3743 20.0459 18.4096 20.1848 18.4096C20.4678 18.4096 20.7431 18.2627 20.8948 18C21.121 17.6083 20.9867 17.1074 20.5949 16.8813Z" fill="white"/>
</svg>
