<svg width="24" height="24" viewBox="0 0 24 24" fill="none" xmlns="http://www.w3.org/2000/svg">
<g clip-path="url(#clip0_57_3490)">
<path d="M11.9987 20.0332C11.5464 20.0332 11.1797 20.3999 11.1797 20.8522V23.1807C11.1797 23.633 11.5464 23.9997 11.9987 23.9997C12.4511 23.9997 12.8176 23.633 12.8176 23.1807V20.8522C12.8176 20.3998 12.451 20.0332 11.9987 20.0332Z" fill="white"/>
<path d="M11.9987 3.96694C12.4511 3.96694 12.8176 3.60026 12.8176 3.14796V0.819223C12.8176 0.366928 12.4511 0.000244141 11.9987 0.000244141C11.5464 0.000244141 11.1797 0.366928 11.1797 0.819223V3.14796C11.1797 3.60026 11.5464 3.96694 11.9987 3.96694Z" fill="white"/>
<path d="M5.16165 17.68L3.51452 19.3262C3.19457 19.646 3.19446 20.1645 3.51419 20.4844C3.67416 20.6444 3.88382 20.7244 4.09348 20.7244C4.30303 20.7244 4.51247 20.6445 4.67244 20.4847L6.31957 18.8385C6.63952 18.5187 6.63963 18.0001 6.3199 17.6803C5.99995 17.3604 5.48149 17.3604 5.16165 17.68Z" fill="white"/>
<path d="M18.2586 6.5591C18.4682 6.5591 18.6777 6.47917 18.8377 6.31931L20.4846 4.67305C20.8045 4.35321 20.8046 3.83474 20.4848 3.5148C20.165 3.19485 19.6465 3.19474 19.3266 3.51469L17.6797 5.16094C17.3598 5.48067 17.3597 5.99925 17.6795 6.31909C17.8393 6.47917 18.049 6.5591 18.2586 6.5591Z" fill="white"/>
<path d="M3.96648 12.0001C3.96648 11.5478 3.59979 11.1812 3.1475 11.1812H0.818978C0.366684 11.1812 0 11.5478 0 12.0001C0 12.4524 0.366684 12.8191 0.818978 12.8191H3.1475C3.59979 12.8191 3.96648 12.4524 3.96648 12.0001Z" fill="white"/>
<path d="M23.181 11.1812H20.8514C20.399 11.1812 20.0324 11.5478 20.0324 12.0001C20.0324 12.4524 20.399 12.8191 20.8514 12.8191H23.181C23.6334 12.8191 24 12.4524 24 12.0001C24 11.5479 23.6334 11.1812 23.181 11.1812Z" fill="white"/>
<path d="M5.1614 6.31929C5.32127 6.47916 5.53093 6.55909 5.74048 6.55909C5.95002 6.55909 6.15968 6.47916 6.31955 6.31929C6.63939 5.99945 6.63939 5.48088 6.31955 5.16104L4.67329 3.51478C4.35345 3.19494 3.83488 3.19494 3.51515 3.51478C3.19531 3.83462 3.19531 4.3532 3.51515 4.67293L5.1614 6.31929Z" fill="white"/>
<path d="M18.8387 17.6801C18.5189 17.3603 18.0003 17.3602 17.6804 17.68C17.3605 17.9998 17.3605 18.5184 17.6803 18.8382L19.3264 20.4844C19.4863 20.6444 19.6959 20.7243 19.9055 20.7243C20.1151 20.7243 20.3248 20.6444 20.4846 20.4845C20.8046 20.1647 20.8046 19.6461 20.4847 19.3264L18.8387 17.6801Z" fill="white"/>
<path d="M11.9996 5.62549C8.48483 5.62549 5.6254 8.48514 5.6254 12.0001C5.6254 15.5149 8.48483 18.3745 11.9996 18.3745C15.5146 18.3745 18.3743 15.5149 18.3743 12.0001C18.3743 8.48514 15.5145 5.62549 11.9996 5.62549ZM11.9996 16.7365C9.388 16.7365 7.26335 14.6118 7.26335 12.0001C7.26335 9.38831 9.388 7.26344 11.9996 7.26344C14.6114 7.26344 16.7363 9.38831 16.7363 12.0001C16.7363 14.6118 14.6114 16.7365 11.9996 16.7365Z" fill="white"/>
</g>
<defs>
<clipPath id="clip0_57_3490">
<rect width="24" height="24" fill="white"/>
</clipPath>
</defs>
</svg>
